<svg viewBox="0 0 24 24" xmlns="http://www.w3.org/2000/svg"><path fill="#FF7044" d="M14.3 12.179v0c-.1-.1-.1-.26-.01-.36 0-.01 0-.01 0-.01l9.26-9.262v0c.58-.59.58-1.54-.01-2.13 -.59-.59-1.54-.59-2.13 0l-9.262 9.258v0c-.1.09-.26.09-.36 0 -.01-.01-.01-.01-.01-.01L2.516.4h-.001C1.92-.19.97-.19.38.39 -.21.97-.21 1.92.37 2.51l9.261 9.262v0c.09.09.09.25 0 .35 -.01 0-.01 0-.01 0L.36 21.38h0c-.59.58-.59 1.53 0 2.12 .58.58 1.53.58 2.12-.01l9.262-9.27v0c.09-.1.25-.1.35-.01 0 0 0 0 0 0l9.262 9.26v0c.58.58 1.53.58 2.12 0 .58-.59.58-1.54 0-2.13Z"/></svg>